:SAMPLES-PER-SECOND 24
:FULLY-SPECIFIED
:DEGREES
114
root  3.4883 40.4358 12.8189 60.0236 4.16736 31.0234
RightUpLeg  -49.606 -22.9264 -21.5889
RightLeg  3.14242 -35.3391 3.86385
RightFoot  -4.00553 -0.614695 9.16158
RightToes  -1.74623e-010 0 -2.59999e-017
Spine  11.1576 -6.55796 2.35258
Spine1  -0.89887 -2.9971 -12.6785
HEad  -57.1396 46.5115 -70.4294
LeftShoulder1  2.21418 -4.68006 -20.6474
LeftArm  30.1285 -14.1982 -59.5329
LeftForeArm  50.9803 -78.2589 -67.1168
LeftHand  0.591383 12.9694 9.69004
RightShoulder  2.51735 4.50145 25.3968
RightArm  -12.3131 -39.0546 9.91579
RightForeArm  11.9154 43.9902 10.0015
RightHand  -3.03145 7.83492 -26.4654
LeftUpLeg  3.14564 28.8789 30.22
LeftLeg  90.5269 0.686351 -26.6643
LeftFoot  9.5773 7.85382 -41.1541
LeftToes  -6.27559e-011 -2.10356e-011 8.24929e-012
115
root  4.4011 40.5283 12.8868 60.0201 5.58438 35.9882
RightUpLeg  -47.2491 -29.5927 -25.8558
RightLeg  6.59325 -34.0093 3.53003
RightFoot  -5.55499 -0.592226 11.0032
RightToes  -1.74623e-010 0 -2.59999e-017
Spine  17.9948 -11.1662 7.00693
Spine1  -6.78103 -8.13267 -15.1543
HEad  -59.1361 46.5683 -72.387
LeftShoulder1  2.30172 -4.49323 -22.4826
LeftArm  26.3579 -10.576 -53.142
LeftForeArm  65.7458 -79.0737 -82.4757
LeftHand  0.583675 12.9723 9.60376
RightShoulder  2.29455 4.20584 23.623
RightArm  -11.4441 -41.4722 8.75959
RightForeArm  14.8858 48.4004 11.5325
RightHand  -2.81888 7.54286 -25.2175
LeftUpLeg  22.8006 13.1957 36.321
LeftLeg  58.8663 -15.2472 -25.6277
LeftFoot  7.42939 7.02681 -41.043
LeftToes  -6.27559e-011 -2.10356e-011 8.24929e-012
116
root  5.02413 40.5233 12.7845 59.3831 6.3136 39.4115
RightUpLeg  -46.0053 -32.5838 -28.957
RightLeg  10.8591 -33.7607 0.563611
RightFoot  -6.87371 -0.410575 9.3202
RightToes  -1.74623e-010 0 -2.59999e-017
Spine  25.1531 -13.6174 8.30406
Spine1  -11.4491 -11.3279 -13.0586
HEad  -57.1557 46.5776 -71.2899
LeftShoulder1  2.37326 -4.35562 -23.9759
LeftArm  24.8715 -8.12139 -49.7881
LeftForeArm  58.6752 -78.8062 -77.302
LeftHand  0.467015 12.7864 8.09248
RightShoulder  2.16353 3.95806 22.8153
RightArm  -13.2296 -43.3222 7.68459
RightForeArm  18.8804 56.855 15.7929
RightHand  -2.60521 7.09023 -24.1994
LeftUpLeg  40.052 9.05375 47.1307
LeftLeg  21.1411 -25.909 -9.97018
LeftFoot  4.47813 5.67654 -39.5522
LeftToes  -6.27559e-011 -2.10356e-011 8.24929e-012
117
root  5.14196 40.5739 12.5971 60.7986 9.06952 41.6276
RightUpLeg  -43.1142 -29.4113 -31.2584
RightLeg  9.20827 -39.5399 -2.69479
RightFoot  -6.5285 -0.352888 7.32853
RightToes  -1.74623e-010 0 -2.59999e-017
Spine  30.8648 -14.7073 11.4541
Spine1  -14.4322 -12.0322 -12.3928
HEad  -54.4294 44.1545 -68.7654
LeftShoulder1  2.34779 -4.20253 -24.2573
LeftArm  24.9615 -7.70518 -49.2361
LeftForeArm  41.8024 -77.4951 -60.7921
LeftHand  0.31557 11.9018 6.50223
RightShoulder  2.27331 4.08258 23.8417
RightArm  -17.6462 -45.0512 10.0851
RightForeArm  20.5261 63.8206 21.5103
RightHand  -2.72624 6.95958 -25.5271
LeftUpLeg  41.088 14.6823 63.597
LeftLeg  13.6889 -32.5179 -7.94418
LeftFoot  2.14009 4.53135 -37.1915
LeftToes  -6.27559e-011 -2.10356e-011 8.24929e-012
118
root  5.15416 40.6029 12.4645 61.8596 10.9142 43.2012
RightUpLeg  -39.8536 -26.2939 -33.0138
RightLeg  5.14442 -42.5959 -3.0623
RightFoot  -7.03347 -0.319472 7.2076
RightToes  -1.74623e-010 0 -2.59999e-017
Spine  34.5974 -15.9598 15.0424
Spine1  -14.601 -11.7322 -15.6282
HEad  -53.3287 41.6071 -67.0409
LeftShoulder1  2.40624 -4.28532 -24.7036
LeftArm  23.0826 -6.55229 -47.4765
LeftForeArm  34.7875 -76.2422 -51.6415
LeftHand  0.295766 10.6546 7.45521
RightShoulder  2.5909 4.60147 25.9389
RightArm  -18.7694 -41.4961 13.3604
RightForeArm  22.3763 66.5347 24.6531
RightHand  -3.02031 7.72819 -26.587
LeftUpLeg  34.2178 9.80828 60.9651
LeftLeg  20.1708 -31.8612 -10.6716
LeftFoot  0.0506692 3.73844 -36.3204
LeftToes  -6.27559e-011 -2.10356e-011 8.24929e-012
119
root  5.27169 40.7199 12.1377 64.023 12.3786 44.3696
RightUpLeg  -39.9094 -25.6148 -33.4788
RightLeg  3.47765 -40.4172 -3.0058
RightFoot  -7.84644 -0.184587 4.23179
RightToes  -1.74623e-010 0 -2.59999e-017
Spine  34.537 -16.9074 17.7374
Spine1  -13.2922 -11.1351 -17.9265
HEad  -51.2819 40.5205 -65.6334
LeftShoulder1  2.53307 -4.47782 -25.5869
LeftArm  20.6827 -5.08774 -44.4027
LeftForeArm  33.06 -75.6397 -48.169
LeftHand  0.278755 10.2633 7.60325
RightShoulder  2.83668 4.98393 27.4532
RightArm  -16.5433 -34.9579 14.1473
RightForeArm  25.9297 68.357 26.9688
RightHand  -2.91633 8.10674 -25.0096
LeftUpLeg  27.6588 3.54448 53.6786
LeftLeg  23.9918 -27.1229 -12.3715
LeftFoot  0.215911 3.60721 -34.6664
LeftToes  -6.27559e-011 -2.10356e-011 8.24929e-012
120
root  5.23838 40.7022 12.1574 67.7903 14.4998 46.4185
RightUpLeg  -42.0862 -25.2355 -33.3998
RightLeg  6.30864 -34.738 -5.81286
RightFoot  -8.65937 -0.0440413 -0.697807
RightToes  -1.74623e-010 0 -2.59999e-017
Spine  32.4389 -16.0629 17.3724
Spine1  -11.5225 -10.5611 -15.8754
HEad  -48.994 39.4958 -63.2978
LeftShoulder1  2.58776 -4.43838 -26.4676
LeftArm  19.2709 -5.22962 -41.6436
LeftForeArm  34.3708 -75.8441 -48.8835
LeftHand  0.233534 10.5532 6.26508
RightShoulder  2.9764 5.16665 28.3865
RightArm  -16.1054 -31.5667 14.4673
RightForeArm  25.2665 68.2048 26.7148
RightHand  -2.81452 8.25014 -23.9414
LeftUpLeg  15.7724 5.54126 50.6358
LeftLeg  37.469 -20.4976 -15.7501
LeftFoot  0.765264 3.47485 -32.0222
LeftToes  -6.27559e-011 -2.10356e-011 8.24929e-012
121
root  5.13716 40.6267 12.3019 72.1082 17.4017 48.6151
RightUpLeg  -43.8244 -25.4417 -33.022
RightLeg  8.93586 -30.3298 -7.3534
RightFoot  -8.55516 0.0226819 -3.30945
RightToes  -1.74623e-010 0 -2.59999e-017
Spine  28.4037 -14.4819 15.7332
Spine1  -8.4819 -9.84087 -13.0681
HEad  -48.1235 38.9164 -59.2722
LeftShoulder1  2.57168 -4.24134 -27.1093
LeftArm  15.8495 -3.90345 -39.0282
LeftForeArm  49.4573 -77.9583 -62.1575
LeftHand  0.276676 11.0953 6.56502
RightShoulder  3.1405 5.36332 29.5023
RightArm  -15.4376 -30.329 14.3074
RightForeArm  19.3806 63.0478 20.8226
RightHand  -2.89279 8.63888 -23.9277
LeftUpLeg  -1.37868 8.08486 46.1902
LeftLeg  59.0272 -11.0979 -18.6719
LeftFoot  1.24398 3.28305 -29.2508
LeftToes  -6.27559e-011 -2.10356e-011 8.24929e-012
122
root  5.04628 40.4534 12.712 75.8802 20.2209 49.54
RightUpLeg  -46.2396 -26.4734 -31.2747
RightLeg  12.5459 -30.2849 -8.21365
RightFoot  -9.24736 0.00261371 -3.55815
RightToes  -1.74623e-010 0 -2.59999e-017
Spine  22.3026 -12.681 14.0941
Spine1  -4.27693 -8.95063 -12.3344
HEad  -43.517 37.8107 -51.3918
LeftShoulder1  2.55279 -4.08069 -27.5768
LeftArm  10.6411 0.527636 -36.5969
LeftForeArm  81.2435 -79.4443 -91.3351
LeftHand  0.387006 11.8434 7.78272
RightShoulder  3.2918 5.53247 30.533
RightArm  -13.0202 -27.831 12.8532
RightForeArm  14.9388 55.0225 14.9265
RightHand  -2.87125 9.0375 -23.1315
LeftUpLeg  -20.0971 9.89823 38.1846
LeftLeg  79.5444 -3.12994 -18.4111
LeftFoot  1.84298 3.0318 -25.9095
LeftToes  -6.27559e-011 -2.10356e-011 8.24929e-012
123
root  5.01647 40.3206 13.254 76.7982 22.3105 48.9448
RightUpLeg  -47.7357 -26.9415 -28.8163
RightLeg  15.7891 -30.0845 -8.76468
RightFoot  -10.2602 -0.0381886 -3.32038
RightToes  -1.74623e-010 0 -2.59999e-017
Spine  16.2625 -10.6013 11.189
Spine1  0.923383 -7.44774 -12.6555
HEad  -32.6347 31.4178 -37.9922
LeftShoulder1  2.55786 -3.94674 -28.2685
LeftArm  6.51291 4.41027 -35.1167
LeftForeArm  107.382 -78.4555 -115.482
LeftHand  0.473797 12.6338 8.33852
RightShoulder  3.35742 5.62101 30.9033
RightArm  -12.2932 -23.4005 11.3601
RightForeArm  11.6545 47.2296 11.293
RightHand  -2.88664 9.43057 -22.659
LeftUpLeg  -37.9105 10.7319 25.2606
LeftLeg  97.0974 2.46371 -16.557
LeftFoot  -0.421214 2.34417 -24.1887
LeftToes  -6.27559e-011 -2.10356e-011 8.24929e-012
124
root  5.25588 40.2512 13.5778 73.545 23.2575 46.1871
RightUpLeg  -47.421 -26.068 -26.144
RightLeg  17.3747 -26.2909 -8.3493
RightFoot  -11.353 -0.0763974 -2.57203
RightToes  -1.74623e-010 0 -2.59999e-017
Spine  12.604 -8.13787 6.86242
Spine1  5.33683 -5.12134 -12.8994
HEad  -22.3593 18.848 -22.1402
LeftShoulder1  2.5748 -3.8221 -29.1021
LeftArm  4.06698 6.61778 -34.798
LeftForeArm  123.304 -76.534 -129.989
LeftHand  0.520669 13.5268 8.1411
RightShoulder  3.3377 5.61978 30.6887
RightArm  -13.602 -17.4559 10.5865
RightForeArm  8.60319 41.4794 9.35049
RightHand  -2.89939 9.21759 -23.0732
LeftUpLeg  -51.3421 9.93686 6.79043
LeftLeg  106.483 5.46422 -16.6834
LeftFoot  -3.31445 1.5659 -21.779
LeftToes  -6.27559e-011 -2.10356e-011 8.24929e-012
125
root  5.82851 40.1433 14.0737 67.5344 22.3772 41.286
RightUpLeg  -45.4642 -23.7279 -23.5212
RightLeg  17.4491 -22.2872 -7.40371
RightFoot  -13.117 -0.126079 -2.41307
RightToes  -1.74623e-010 0 -2.59999e-017
Spine  10.5348 -5.16924 0.740707
Spine1  8.10092 -2.32786 -12.826
HEad  -16.4389 5.08959 -7.82493
LeftShoulder1  2.57352 -3.74125 -29.4831
LeftArm  3.00891 8.45222 -35.5939
LeftForeArm  132.349 -74.3533 -139.085
LeftHand  0.525388 14.1884 7.63769
RightShoulder  3.26481 5.51281 30.3088
RightArm  -15.5046 -10.4148 11.7631
RightForeArm  7.41843 39.9094 8.90491
RightHand  -2.90739 8.74821 -23.8661
LeftUpLeg  -59.2347 4.47113 -10.6805
LeftLeg  102.438 4.0589 -16.3944
LeftFoot  -5.16783 1.04919 -18.7394
LeftToes  -6.27559e-011 -2.10356e-011 8.24929e-012
126
root  6.57883 40.1095 14.9311 57.0062 21.8771 33.4766
RightUpLeg  -38.1323 -17.5363 -20.2921
RightLeg  15.4443 -20.3335 -6.14598
RightFoot  -14.5832 -0.161498 -2.24055
RightToes  -1.74623e-010 0 -2.59999e-017
Spine  11.4603 -2.0411 -2.48131
Spine1  10.7505 1.14399 -12.8709
HEad  -13.492 -6.25115 2.87381
LeftShoulder1  2.55731 -3.71404 -29.3906
LeftArm  3.2315 8.11567 -37.2447
LeftForeArm  131.658 -73.7617 -140.506
LeftHand  0.531137 13.7116 8.12226
RightShoulder  3.31541 5.58101 30.5962
RightArm  -17.5637 -2.78077 15.3912
RightForeArm  8.87314 42.4632 9.67382
RightHand  -3.01295 8.7246 -24.7333
LeftUpLeg  -60.7869 -1.03545 -17.163
LeftLeg  90.2207 0.256011 -13.1396
LeftFoot  -6.82009 0.803275 -19.1943
LeftToes  -6.27559e-011 -2.10356e-011 8.24929e-012
127
root  7.41589 39.9985 16.0174 44.2735 19.9951 24.16
RightUpLeg  -27.9364 -10.8816 -16.0306
RightLeg  12.5418 -16.7535 -4.2021
RightFoot  -15.651 -0.130844 -0.66446
RightToes  -1.74623e-010 0 -2.59999e-017
Spine  12.9411 1.01961 -2.541
Spine1  14.5107 5.281 -13.6808
HEad  -11.9612 -14.1106 9.66733
LeftShoulder1  2.51533 -3.6993 -28.869
LeftArm  4.11026 6.06993 -39.1626
LeftForeArm  126.541 -74.545 -137.452
LeftHand  0.511308 12.6302 8.91351
RightShoulder  3.49322 5.87501 31.3576
RightArm  -16.1078 5.25892 20.5365
RightForeArm  11.7168 46.044 10.8066
RightHand  -3.05031 8.782 -24.9356
LeftUpLeg  -59.6823 -1.17844 -16.0747
LeftLeg  74.7842 -3.98271 -14.6411
LeftFoot  -5.57189 1.21593 -22.9882
LeftToes  -6.27559e-011 -2.10356e-011 8.24929e-012
